PathFileType	4	(X/Y/Z)	C:/Users/opensim2020/Desktop/walking_exp_matlab/subject06_walking12_straigt_04.trc																																																																																																																																														
DataRate	CameraRate	NumFrames	NumMarkers	Units	OrigDataRate	OrigDataStartFrame	OrigNumFrames																																																																																																																																										
100	100	7	48	mm	100	2811	181																																																																																																																																										
Frame#	Time	LFHD			RFHD			LBHD			RBHD			C7			T10			CLAV			STRN			RBAK			LSHO			LUPA			LELB			LFRM			LWRA			LWRB			LFIN			RSHO			RUPA			RELB			RFRM			RWRA			RWRB			RFIN			LASI			RASI			LPSI			RPSI			LTHI			LKNE			LTIB			LANK			LHEE			LTOE			RTHI			RKNE			RTIB			RANK			RHEE			RTOE			*39			*40			*41			*42			*43			*44			*45			*46			*47		
		X1	Y1	Z1	X2	Y2	Z2	X3	Y3	Z3	X4	Y4	Z4	X5	Y5	Z5	X6	Y6	Z6	X7	Y7	Z7	X8	Y8	Z8	X9	Y9	Z9	X10	Y10	Z10	X11	Y11	Z11	X12	Y12	Z12	X13	Y13	Z13	X14	Y14	Z14	X15	Y15	Z15	X16	Y16	Z16	X17	Y17	Z17	X18	Y18	Z18	X19	Y19	Z19	X20	Y20	Z20	X21	Y21	Z21	X22	Y22	Z22	X23	Y23	Z23	X24	Y24	Z24	X25	Y25	Z25	X26	Y26	Z26	X27	Y27	Z27	X28	Y28	Z28	X29	Y29	Z29	X30	Y30	Z30	X31	Y31	Z31	X32	Y32	Z32	X33	Y33	Z33	X34	Y34	Z34	X35	Y35	Z35	X36	Y36	Z36	X37	Y37	Z37	X38	Y38	Z38	X39	Y39	Z39	X40	Y40	Z40	X41	Y41	Z41	X42	Y42	Z42	X43	Y43	Z43	X44	Y44	Z44	X45	Y45	Z45	X46	Y46	Z46	X47	Y47	Z47	X48	Y48	Z48
																																																																																																																																																	
46	0.45	-645.90839	1675.04468	-1491.50415	-648.51465	1659.45313	-1360.55029	-777.09088	1615.07507	-1497.03809	-778.80621	1605.74805	-1369.04504	-775.21814	1457.95325	-1440.14526	-806.41089	1129.14465	-1432.93591	-663.28119	1382.09424	-1443.58496	-624.93042	1206.30042	-1454.26868	-842.39362	1286.13879	-1360.526	-727.84229	1413.40918	-1602.41931	-719.01422	1211.62927	-1673.07104	-707.09521	1099.67737	-1685.17249	-629.95746	971.47961	-1706.66345	-522.85895	899.74109	-1665.5553	-575.6499	864.9848	-1698.12268	-500.8504	814.58984	-1700.5321	-703.36957	1412.04224	-1280.49365	-750.97266	1214.7074	-1193.80957	-751.34741	1092.31909	-1183.89941	-747.25629	971.65021	-1168.01929	-702.70654	826.99396	-1199.65039	-756.52625	833.44824	-1159.69873	-727.51617	754.02637	-1158.35498	-638.37323	965.42365	-1551.31799	-620.57043	979.11053	-1332.40466	-792.42566	992.4173	-1511.74585	-773.474	1003.60297	-1345.22473	-691.83289	645.69281	-1603.34619	-674.7204	483.55154	-1588.18616	-868.16125	333.14725	-1580.23926	-1000.06189	224.67972	-1544.63953	-1030.61511	244.55644	-1494.62463	-952.06531	86.00993	-1551.69141	-646.18475	646.29138	-1271.57751	-628.84271	523.15747	-1300.11768	-662.65863	256.3941	-1302.91382	-670.66766	72.07597	-1354.36816	-708.30981	47.99226	-1400.87122	-515.50488	36.71986	-1356.15295	-749.48358	1707.60132	-1433.90369	NaN	NaN	NaN	NaN	NaN	NaN	NaN	NaN	NaN	NaN	NaN	NaN	NaN	NaN	NaN	NaN	NaN	NaN	NaN	NaN	NaN	NaN	NaN	NaN
47	0.46	-635.8092	1675.73206	-1491.0907	-638.14392	1660.255	-1360.14417	-767.08173	1615.7804	-1496.29712	-768.48456	1606.57629	-1368.26489	-765.13416	1458.77942	-1439.09998	-796.50256	1130.08484	-1431.39758	-653.39722	1382.78406	-1442.9563	-615.03107	1207.03894	-1453.44812	-832.19006	1287.26038	-1358.54529	-718.43738	1413.70715	-1601.67993	-711.39764	1211.31055	-1671.48816	-701.18457	1099.1322	-1683.21167	-627.85474	968.53369	-1704.97241	-522.61395	893.23682	-1665.40344	-577.31219	860.1756	-1697.01062	-504.28812	807.47888	-1700.7356	-692.45123	1412.77344	-1279.66797	-737.16364	1214.78357	-1192.63635	-736.1311	1092.43518	-1182.78479	-729.80157	971.86963	-1167.04797	-682.70728	828.41388	-1199.39954	-736.27899	833.52002	-1159.02954	-705.49811	754.87695	-1157.99695	-628.09473	966.40649	-1550.08167	-611.42279	979.7085	-1331.26709	-782.52899	993.16791	-1510.98828	-763.97089	1004.31232	-1344.34314	-676.72504	647.16266	-1602.57861	-656.12317	485.53564	-1587.27356	-847.98621	334.4595	-1578.93091	-979.07507	224.64061	-1543.00745	-1009.97882	243.80371	-1492.68311	-928.18591	87.42628	-1550.61145	-639.52588	646.12573	-1270.58655	-624.52789	522.64319	-1299.4353	-661.40076	256.32254	-1302.72913	-670.505	72.13984	-1354.55811	-708.27448	48.05135	-1401.0249	-515.42407	36.57974	-1356.19214	-739.29468	1708.38257	-1433.30811	NaN	NaN	NaN	NaN	NaN	NaN	NaN	NaN	NaN	NaN	NaN	NaN	NaN	NaN	NaN	NaN	NaN	NaN	NaN	NaN	NaN	NaN	NaN	NaN
48	0.47	-625.75415	1676.24365	-1490.82092	-627.87354	1660.93213	-1359.76062	-757.38007	1616.53943	-1495.88562	-758.21332	1607.37805	-1367.57581	-755.10712	1459.48975	-1438.06567	-786.7113	1130.9176	-1430.03479	-643.4859	1383.43384	-1442.31311	-605.17175	1207.72095	-1452.59778	-822.09338	1288.29236	-1356.69043	-709.02502	1414.04724	-1600.93396	-703.56885	1211.24609	-1670.11975	-695.3703	1098.7301	-1681.28967	-626.09491	965.68799	-1703.42578	-523.05292	886.89807	-1665.19019	-579.11847	855.39777	-1695.41492	-508.33658	800.66119	-1700.96179	-681.73712	1413.52197	-1278.87939	-723.38507	1214.90564	-1191.57947	-720.92468	1092.63489	-1181.74097	-712.24152	972.23682	-1166.17432	-662.45715	829.95416	-1199.19226	-715.79169	833.90283	-1158.43774	-683.27521	756.01648	-1157.66101	-617.78656	967.34332	-1548.74719	-601.24011	980.34625	-1329.61292	-772.61841	993.95453	-1510.11365	-754.4585	1004.88049	-1343.44836	-661.71008	648.60504	-1601.8606	-637.66949	487.56244	-1586.4386	-827.5647	334.67892	-1577.78479	-957.55853	223.66502	-1541.68396	-989.24176	241.76443	-1491.21558	-902.96606	87.90726	-1549.51685	-633.79553	645.97241	-1270.03662	-620.45459	522.09198	-1298.73083	-660.50775	256.30344	-1302.75061	-670.34119	72.27867	-1354.88477	-708.23541	48.19606	-1401.2865	-515.31226	36.44943	-1356.2572	-729.06012	1709.07715	-1432.77698	NaN	NaN	NaN	NaN	NaN	NaN	NaN	NaN	NaN	NaN	NaN	NaN	NaN	NaN	NaN	NaN	NaN	NaN	NaN	NaN	NaN	NaN	NaN	NaN
49	0.48	-615.70862	1676.6897	-1490.47009	-617.43835	1661.54297	-1359.47986	-747.11969	1616.99146	-1494.88794	-747.94391	1608.11194	-1366.84473	-745.18323	1460.06396	-1437.15857	-776.97778	1131.66064	-1428.63586	-633.54688	1384.01965	-1441.69739	-595.36676	1208.26587	-1451.73779	-812.03375	1289.21777	-1354.94861	-699.51489	1414.35925	-1600.1178	-695.63544	1211.32056	-1668.76868	-689.61865	1098.65808	-1679.62024	-624.89716	963.11853	-1702.20959	-524.07703	880.70929	-1664.85718	-581.45209	851.00195	-1693.83093	-512.95892	794.22125	-1701.14099	-671.12732	1414.24048	-1278.15393	-709.77692	1215.12146	-1190.59595	-705.72791	1092.90417	-1180.82056	-694.60303	972.77911	-1165.39465	-642.10602	831.68622	-1199.07422	-695.02551	834.50946	-1157.83643	-660.94531	757.46179	-1157.35828	-607.44165	968.44312	-1547.43445	-591.88403	980.62311	-1328.1781	-762.67834	994.74054	-1509.2583	-745.00751	1005.34198	-1342.47168	-646.83905	650.01959	-1601.18054	-619.50781	489.70633	-1585.77393	-806.84723	334.06058	-1576.70337	-935.27112	221.05984	-1540.29553	-967.54272	238.2182	-1489.74829	-876.28009	87.13026	-1548.06506	-628.62939	645.31543	-1269.51697	-616.56226	521.48895	-1297.97559	-659.82813	256.24918	-1302.69995	-670.25702	72.40416	-1355.26929	-708.18256	48.33334	-1401.5918	-515.22845	36.34568	-1356.25903	-718.80017	1709.66736	-1432.29517	NaN	NaN	NaN	NaN	NaN	NaN	NaN	NaN	NaN	NaN	NaN	NaN	NaN	NaN	NaN	NaN	NaN	NaN	NaN	NaN	NaN	NaN	NaN	NaN
50	0.49	-605.79425	1677.12122	-1490.39624	-607.07074	1662.07275	-1359.3009	-737.49792	1617.60107	-1494.54504	-737.67047	1608.80457	-1366.1925	-735.28522	1460.56812	-1436.13538	-767.2865	1132.29639	-1427.42188	-623.7312	1384.50793	-1441.08313	-585.60797	1208.71948	-1450.87866	-801.98425	1289.97217	-1353.27515	-689.98444	1414.72131	-1599.3252	-687.80487	1211.42419	-1667.53357	-683.7851	1098.65344	-1677.96997	-623.62659	960.80481	-1700.75598	-525.58728	874.75122	-1664.52686	-584.66437	847.35492	-1692.87463	-518.047	788.11505	-1701.20789	-660.63885	1414.95203	-1277.44812	-696.51593	1215.3844	-1189.80261	-690.76056	1093.32971	-1179.80811	-676.97247	973.44269	-1164.68481	-621.54218	833.69861	-1199.15796	-674.32599	835.24304	-1157.36157	-638.50171	759.08765	-1157.13379	-596.91162	969.39093	-1546.10437	-582.52826	980.77917	-1326.72876	-752.69507	995.52356	-1508.43079	-735.39954	1005.56323	-1341.5282	-631.80072	651.38824	-1600.2052	-601.53436	491.81699	-1584.87598	-785.71765	332.56476	-1575.36584	-912.20258	217.30995	-1539.16699	-945.34027	233.43954	-1488.61572	-848.90057	86.21484	-1547.25269	-622.61731	645.28088	-1269.13135	-612.7677	520.91815	-1297.01721	-659.03729	256.21283	-1302.53955	-670.26569	72.50426	-1355.47937	-708.12878	48.47643	-1401.8269	-515.19037	36.2062	-1356.13721	-708.62	1710.22083	-1431.88525	NaN	NaN	NaN	NaN	NaN	NaN	NaN	NaN	NaN	NaN	NaN	NaN	NaN	NaN	NaN	NaN	NaN	NaN	NaN	NaN	NaN	NaN	NaN	NaN
51	0.5	-595.78448	1677.4364	-1490.25073	-596.80743	1662.55786	-1359.10059	-727.58008	1618.01453	-1493.92627	-727.46027	1609.42688	-1365.58057	-725.39288	1461.01074	-1435.33167	-757.52856	1132.75781	-1426.24658	-613.94427	1384.91711	-1440.43774	-575.88965	1209.05969	-1449.99133	-791.98694	1290.59241	-1351.82764	-680.40808	1415.03589	-1598.57495	-680.12494	1211.55615	-1666.41663	-677.87268	1098.66956	-1676.48206	-622.51031	958.77118	-1699.46851	-527.41211	869.07025	-1664.10205	-587.86157	843.92291	-1691.68713	-523.61688	782.36554	-1701.14941	-650.31366	1415.64429	-1276.81873	-683.21442	1215.8324	-1188.68237	-675.98218	1093.75012	-1178.83167	-659.53906	974.27643	-1163.97583	-601.46613	835.8385	-1199.38318	-653.54425	836.26526	-1156.88708	-615.85773	761.03711	-1156.94946	-586.56317	970.36346	-1544.76746	-573.17859	980.71857	-1325.31165	-742.71167	996.22473	-1507.65784	-726.24664	1005.86511	-1340.57678	-617.25226	652.8291	-1599.60962	-583.75299	493.84671	-1583.69556	-764.8783	330.9826	-1574.74609	-888.43793	212.42085	-1538.17554	-922.39563	227.44521	-1487.74194	-820.21161	84.05859	-1546.18884	-617.64264	645.03638	-1268.75452	-608.92834	520.47668	-1296.02954	-657.78387	256.21991	-1302.28748	-670.23999	72.58698	-1355.53992	-708.1178	48.63195	-1401.97998	-515.19733	36.12408	-1355.98511	-698.42584	1710.72205	-1431.50281	NaN	NaN	NaN	NaN	NaN	NaN	NaN	NaN	NaN	NaN	NaN	NaN	NaN	NaN	NaN	NaN	NaN	NaN	NaN	NaN	NaN	NaN	NaN	NaN
52	0.51	-585.81519	1677.62036	-1490.11353	-586.58453	1662.99951	-1358.98987	-717.68756	1618.36731	-1493.37598	-717.24396	1610.01196	-1364.99683	-715.46375	1461.40845	-1434.52185	-747.80756	1133.11731	-1425.15369	-604.09784	1385.27832	-1439.8717	-566.22107	1209.35535	-1449.07654	-781.97577	1291.11328	-1350.54626	-670.7536	1415.28406	-1597.8833	-672.68292	1211.67114	-1665.48608	-671.99261	1098.75928	-1675.27441	-621.41278	956.91821	-1698.34033	-529.90985	863.44165	-1663.43518	-591.19971	840.83472	-1690.63391	-529.4624	776.99255	-1700.98999	-640.03162	1416.28442	-1276.28125	-670.38654	1216.23657	-1187.72559	-661.40472	1094.27356	-1177.85437	-642.28046	975.19244	-1163.27307	-581.09454	838.32062	-1199.55762	-633.00452	837.44855	-1156.44775	-593.17139	763.28363	-1156.92578	-576.30188	971.16742	-1543.39282	-564.69135	980.46313	-1324.16711	-732.68011	996.87811	-1507.0144	-716.84924	1005.90704	-1339.77942	-602.84753	654.36395	-1598.98804	-566.46655	495.98849	-1582.67224	-743.3244	328.51859	-1573.84412	-863.88843	206.6044	-1537.37659	-898.76923	220.41068	-1487.06921	-790.4942	81.80263	-1545.40747	-611.87067	644.92017	-1268.27539	-604.97583	520.05005	-1294.90576	-656.1524	256.24628	-1301.96436	-669.9859	72.55137	-1355.85168	-708.1391	48.7616	-1401.9928	-515.20441	36.0045	-1355.78845	-688.27332	1711.12695	-1431.1731	NaN	NaN	NaN	NaN	NaN	NaN	NaN	NaN	NaN	NaN	NaN	NaN	NaN	NaN	NaN	NaN	NaN	NaN	NaN	NaN	NaN	NaN	NaN	NaN
